HIERARCHY
ROOT RootJoint
{
    OFFSET   0.000000   0.000000   0.000000
    CHANNELS 6 Xposition Yposition Zposition Xrotation Yrotation Zrotation
    JOINT pelvis_lowerback
    {
        OFFSET   0.000000   0.093605   0.000000
        CHANNELS 3 Xrotation Yrotation Zrotation
        JOINT lowerback_torso
        {
            OFFSET   0.000000   0.100000   0.000000
            CHANNELS 3 Xrotation Yrotation Zrotation
            JOINT torso_head
            {
                OFFSET   0.000000   0.282350   0.000000
                CHANNELS 3 Xrotation Yrotation Zrotation
                End Site
                {
                    OFFSET   0.000000   0.192650   0.000000
                }
            }
            JOINT rTorso_Clavicle
            {
                OFFSET  -0.001000   0.157500   0.000000
                CHANNELS 3 Xrotation Yrotation Zrotation
                JOINT rShoulder
                {
                    OFFSET  -0.117647   0.000000   0.000000
                    CHANNELS 3 Xrotation Yrotation Zrotation
                    JOINT rElbow
                    {
                        OFFSET  -0.245000   0.000000   0.000000
                        CHANNELS 3 Xrotation Yrotation Zrotation
                        JOINT rWrist
                        {
                            OFFSET  -0.240000   0.000000   0.000000
                            CHANNELS 3 Xrotation Yrotation Zrotation
                            End Site
                            {
                                OFFSET  -0.116353  -0.002500   0.000000
                            }
                        }
                    }
                }
            }
            JOINT lTorso_Clavicle
            {
                OFFSET   0.001000   0.157500   0.000000
                CHANNELS 3 Xrotation Yrotation Zrotation
                JOINT lShoulder
                {
                    OFFSET   0.117647   0.000000   0.000000
                    CHANNELS 3 Xrotation Yrotation Zrotation
                    JOINT lElbow
                    {
                        OFFSET   0.245000   0.000000   0.000000
                        CHANNELS 3 Xrotation Yrotation Zrotation
                        JOINT lWrist
                        {
                            OFFSET   0.240000   0.000000   0.000000
                            CHANNELS 3 Xrotation Yrotation Zrotation
                            End Site
                            {
                                OFFSET   0.116353  -0.002500   0.000000
                            }
                        }
                    }
                }
            }
        }
    }
    JOINT rHip
    {
        OFFSET  -0.100000  -0.051395   0.000000
        CHANNELS 3 Xrotation Yrotation Zrotation
        JOINT rKnee
        {
            OFFSET   0.000000  -0.410000   0.000000
            CHANNELS 3 Xrotation Yrotation Zrotation
            JOINT rAnkle
            {
                OFFSET   0.000000  -0.390000   0.000000
                CHANNELS 3 Xrotation Yrotation Zrotation
                JOINT rToeJoint
                {
                    OFFSET   0.000000  -0.050000   0.130000
                    CHANNELS 3 Xrotation Yrotation Zrotation
                    End Site
                    {
                        OFFSET  -0.010000   0.002000   0.060000
                    }
                }
            }
        }
    }
    JOINT lHip
    {
        OFFSET   0.100000  -0.051395   0.000000
        CHANNELS 3 Xrotation Yrotation Zrotation
        JOINT lKnee
        {
            OFFSET   0.000000  -0.410000   0.000000
            CHANNELS 3 Xrotation Yrotation Zrotation
            JOINT lAnkle
            {
                OFFSET   0.000000  -0.390000   0.000000
                CHANNELS 3 Xrotation Yrotation Zrotation
                JOINT lToeJoint
                {
                    OFFSET   0.000000  -0.050000   0.130000
                    CHANNELS 3 Xrotation Yrotation Zrotation
                    End Site
                    {
                        OFFSET   0.010000   0.002000   0.060000
                    }
                }
            }
        }
    }
}
MOTION
Frames: 14
Frame Time:   0.008333
 -2.169251   0.908667   4.104639 -17.559403  62.615948   9.742518  15.503322  -0.117393  -1.958403  -6.679423  -3.049958   1.706514   0.483918   0.330524  -0.881649  -0.420301   3.864450  -7.646314  10.248355  14.311913  23.823308  -0.075337  44.947387   0.015067   2.904857   3.780262  -3.160714 -14.231944 -13.810096  24.701398 -50.469145 -22.561640  -3.064450   0.068981 -47.618331   0.017628  -1.644723  -3.887202  16.395810 -25.952709   5.031951  -0.497254  33.124443  -0.017551  -0.086349  -0.127404  -4.425151  11.984770  -1.244711  -0.000016  -0.001331   9.736323  -9.026054  -0.515355  21.944309  -0.004985  -0.009960 -13.967172 -14.060052   7.060384 -11.363278  -0.005743  -0.024736
 -2.162583   0.909767   4.107047 -17.532621  63.372518   9.843909  14.924061  -0.240180  -1.982899  -6.695345  -3.201676   2.085957   0.522815   0.638736  -1.094960  -0.262385   3.022964  -7.483480  11.148504  13.626593  24.608909  -0.070871  44.127870   0.011938   2.954504   3.812618  -2.933646 -14.431323 -13.583224  25.786838 -51.386525 -22.836197  -2.508147   0.069111 -47.066934   0.016563  -1.613877  -3.852780  16.685888 -25.335894   5.363984  -0.657253  31.426222  -0.014907  -0.084220  -0.003919  -4.106676  12.097366  -1.296480  -0.000016  -0.001727  10.050150  -9.074447  -0.504721  21.642579  -0.004786  -0.009667 -13.236255 -14.199317   7.059448 -12.575532  -0.006965  -0.025391
 -2.155803   0.910963   4.109443 -17.463359  64.128308   9.897614  14.335933  -0.373287  -1.984729  -6.732475  -3.372722   2.451134   0.576979   0.933115  -1.297763  -0.107702   2.160088  -7.375907  12.019197  12.935883  25.330498  -0.065915  43.338606   0.008990   2.996657   3.757602  -2.712771 -14.658974 -13.357321  26.854568 -52.250712 -23.109028  -1.949797   0.068356 -46.543097   0.015571  -1.590670  -3.775077  16.952674 -24.723112   5.683194  -0.799951  29.818808  -0.012279  -0.081696   0.109405  -3.807554  12.201047  -1.342591  -0.000010  -0.001958  10.338537  -9.120068  -0.481129  21.350927  -0.004587  -0.009372 -12.425176 -14.336148   7.051442 -13.942042  -0.008506  -0.026685
 -2.148963   0.912145   4.111821 -17.354898  64.858936   9.900394  13.747172  -0.518092  -1.964276  -6.798268  -3.558955   2.801853   0.634336   1.208541  -1.486644   0.035891   1.314144  -7.309337  12.848097  12.266375  25.992578  -0.060556  42.589026   0.006165   3.033062   3.630193  -2.519154 -14.901517 -13.145462  27.883501 -53.065667 -23.382905  -1.406030   0.066653 -46.054690   0.014804  -1.568155  -3.696871  17.240638 -24.136066   5.978528  -0.915629  28.328586  -0.009649  -0.078197   0.214916  -3.527633  12.296906  -1.385276   0.000004  -0.002075  10.615111  -9.153926  -0.444521  21.067881  -0.004385  -0.009048 -11.593461 -14.454487   7.035999 -15.375374  -0.009950  -0.028169
 -2.142107   0.913248   4.114174 -17.215430  65.551163   9.863163  13.163291  -0.671487  -1.929317  -6.888009  -3.754258   3.136886   0.690351   1.465399  -1.662162   0.166222   0.501806  -7.273908  13.631070  11.629461  26.601596  -0.055062  41.882641   0.003564   3.065690   3.464499  -2.359857 -15.146469 -12.953649  28.867994 -53.832097 -23.658821  -0.886248   0.064106 -45.602133   0.014188  -1.542406  -3.636125  17.548708 -23.578943   6.250617  -1.007209  26.949828  -0.007139  -0.073842   0.313437  -3.265720  12.385688  -1.424442   0.000022  -0.002099  10.885392  -9.177637  -0.401826  20.797951  -0.004159  -0.008649 -10.769881 -14.556905   7.016428 -16.830806  -0.011110  -0.029416
 -2.135268   0.914222   4.116494 -17.048614  66.202477   9.791218  12.587411  -0.830797  -1.883312  -6.996121  -3.954451   3.456074   0.743086   1.704701  -1.825445   0.283405  -0.270136  -7.262673  14.367756  11.029393  27.163072  -0.049674  41.219900   0.001284   3.095805   3.283020  -2.233703 -15.385625 -12.783487  29.806110 -54.550899 -23.936134  -0.395304   0.060884 -45.184177   0.013629  -1.511812  -3.599417  17.866666 -23.053765   6.501079  -1.078785  25.672518  -0.004870  -0.068921   0.405417  -3.020748  12.467991  -1.460398   0.000042  -0.002057  11.155463  -9.189983  -0.361314  20.551869  -0.003906  -0.008138  -9.967560 -14.645640   6.989295 -18.303750  -0.012157  -0.030439
 -2.128476   0.915032   4.118777 -16.853219  66.817632   9.683794  12.021406  -0.994415  -1.827786  -7.118146  -4.157193   3.760580   0.791609   1.927533  -1.977371   0.388571  -0.999940  -7.269857  15.059594  10.466832  27.682058  -0.044572  40.599569  -0.000613   3.124054   3.097905  -2.136626 -15.614247 -12.634316  30.697427 -55.223613 -24.213374   0.064870   0.057170 -44.798900   0.013054  -1.475838  -3.588264  18.185831 -22.562571   6.731767  -1.133948  24.486980  -0.002913  -0.063751   0.491227  -2.791724  12.544329  -1.493537   0.000061  -0.001973  11.431157  -9.190505  -0.328890  20.338264  -0.003630  -0.007515  -9.190313 -14.722299   6.954324 -19.805532  -0.013267  -0.031401
 -2.121225   0.915974   4.120838 -16.700683  67.498683   9.616456  11.243144  -1.170480  -1.677984  -7.198948  -4.346356   4.322247   0.985628   2.537438  -2.193759   0.503436  -1.785626  -7.476044  15.764576   9.842094  28.095735  -0.039348  40.084845  -0.002705   3.143765   2.986899  -2.108654 -15.638605 -12.490239  30.537474 -55.599006 -24.218132   0.538655   0.048424 -44.626371   0.011078  -1.232748  -4.226081  18.915859 -21.943363   7.025064  -1.249068  23.175304  -0.001970  -0.061777   0.733063  -2.508942  12.601859  -1.487488   0.000048  -0.001512  11.742845  -9.183167  -0.308524  20.075297  -0.003653  -0.007386  -8.267857 -14.767593   6.964689 -21.504127  -0.014457  -0.034605
 -2.114148   0.916746   4.122940 -16.632488  68.183310   9.663903  10.495896  -1.366876  -1.536111  -7.244196  -4.551220   4.772692   1.118003   3.045965  -2.307913   0.612397  -2.562533  -7.647689  16.435838   9.243414  28.496386  -0.034943  39.596064  -0.004109   3.157808   2.896202  -2.100373 -15.604413 -12.317228  30.481233 -55.925727 -24.127134   0.867866   0.041990 -44.370905   0.009415  -1.098749  -4.533874  19.423629 -21.327328   7.314769  -1.389994  21.960379  -0.000993  -0.059377   0.959925  -2.244422  12.653238  -1.471578   0.000035  -0.001038  12.058688  -9.156261  -0.315549  19.843311  -0.003587  -0.007197  -7.372783 -14.806283   6.963031 -23.195351  -0.014991  -0.037958
 -2.107314   0.917338   4.125102 -16.594609  68.843943   9.753418   9.796580  -1.574926  -1.423757  -7.272871  -4.765248   5.162530   1.229959   3.502229  -2.396561   0.716655  -3.307508  -7.799919  17.072056   8.679543  28.882934  -0.031166  39.135778  -0.004908   3.170170   2.796229  -2.084936 -15.559431 -12.149042  30.449613 -56.223809 -24.038599   1.153556   0.036575 -44.110200   0.008035  -1.020933  -4.671169  19.775919 -20.748384   7.586080  -1.521150  20.833311   0.000085  -0.056385   1.172183  -1.997166  12.699827  -1.454030   0.000020  -0.000649  12.368319  -9.123037  -0.328128  19.638015  -0.003426  -0.006887  -6.536219 -14.839092   6.960904 -24.823285  -0.014676  -0.040274
 -2.100721   0.917759   4.127314 -16.560773  69.463986   9.853723   9.145716  -1.785588  -1.339623  -7.291538  -4.979155   5.506992   1.331357   3.921862  -2.472061   0.814647  -4.014236  -7.937269  17.672482   8.152173  29.253091  -0.027877  38.703951  -0.005265   3.181674   2.689413  -2.060995 -15.514526 -11.991656  30.428562 -56.500356 -23.962997   1.414232   0.031874 -43.861687   0.006913  -0.962784  -4.753235  20.061667 -20.215110   7.837959  -1.634377  19.782872   0.001180  -0.052894   1.370412  -1.765973  12.742283  -1.436662   0.000004  -0.000350  12.669729  -9.088956  -0.342711  19.453938  -0.003197  -0.006476  -5.763451 -14.868138   6.960507 -26.371920  -0.013773  -0.041255
 -2.094347   0.918020   4.129566 -16.516915  70.035738   9.949325   8.540590  -1.993300  -1.279272  -7.303233  -5.187516   5.813826   1.425105   4.310709  -2.538086   0.905528  -4.680555  -8.062231  18.237377   7.660980  29.605819  -0.024981  38.299826  -0.005319   3.192660   2.581016  -2.031557 -15.472236 -11.845635  30.414028 -56.758053 -23.900041   1.655364   0.027766 -43.628544   0.006001  -0.911535  -4.818568  20.315665 -19.727686   8.071429  -1.729843  18.801268   0.002206  -0.049053   1.555354  -1.549841  12.781039  -1.420270  -0.000012  -0.000132  12.962360  -9.056298  -0.359844  19.288054  -0.002929  -0.005992  -5.051928 -14.895303   6.961777 -27.840252  -0.012567  -0.041013
 -2.088169   0.918134   4.131850 -16.453924  70.556766  10.030265   7.977704  -2.194980  -1.238040  -7.309835  -5.387616   6.088678   1.512344   4.671842  -2.596477   0.989023  -5.306282  -8.176519  18.767663   7.204706  29.940776  -0.022411  37.922277  -0.005173   3.203310   2.475033  -1.999227 -15.433088 -11.710433  30.404157 -56.998519 -23.847984   1.879211   0.024173 -43.410768   0.005257  -0.863331  -4.878320  20.549599 -19.283397   8.287876  -1.809670  17.882889   0.003107  -0.045019   1.727817  -1.347847  12.816442  -1.405162  -0.000026   0.000021  13.245986  -9.025772  -0.380323  19.138485  -0.002642  -0.005468  -4.397018 -14.921554   6.964210 -29.232505  -0.011265  -0.039805
 -2.082170   0.918221   4.134088 -16.400770  70.990170  10.109232   7.529202  -2.411213  -1.192886  -7.342902  -5.535967   6.370287   1.591864   5.040851  -2.693386   1.087364  -5.947552  -8.309098  19.182124   6.704639  30.145154  -0.018962  37.703241  -0.004847   3.193097   2.423177  -1.868329 -15.440130 -11.602777  30.357455 -57.133652 -23.840815   2.245391   0.020899 -43.236351   0.004509  -0.819285  -4.880749  20.708896 -18.929110   8.448283  -1.855063  17.125931   0.003745  -0.039872   2.033850  -1.090542  12.857600  -1.366111  -0.000073   0.000303  13.508127  -9.063777  -0.402397  19.053791  -0.002237  -0.004651  -3.729000 -14.964080   7.005522 -30.646851  -0.010374  -0.036709
